<?xml version="1.0" encoding="UTF-8"?>
<svg version="1.1" xmlns="http://www.w3.org/2000/svg" width="270" height="271">
<path d="M0 0 C7.65338007 6.8030045 9.500728 17.79561311 11.87890625 27.34375 C12.24213618 28.76312131 12.60657571 30.18218355 12.97215271 31.60095215 C13.9254023 35.31001283 14.8662687 39.02208383 15.80322266 42.73529053 C17.30317279 48.67632913 18.81656451 54.613877 20.34058952 60.54878235 C20.86507734 62.6021109 21.38077195 64.65749982 21.89564514 66.71325684 C24.1628585 79.18561946 24.1628585 79.18561946 31.03549194 88.86685181 C33.91891859 90.03235632 36.78907173 90.76698316 39.8125 91.5 C41.14901128 91.85123169 42.48465852 92.20576213 43.81958008 92.56298828 C52.45166196 94.85091065 61.0946563 97.08648096 69.7578125 99.25390625 C71.61462 99.72055724 73.47139069 100.18735473 75.328125 100.65429688 C78.15298151 101.36470585 80.97835026 102.07262216 83.80566406 102.77319336 C86.60416337 103.46755965 89.39987813 104.17231596 92.1953125 104.87890625 C93.02982941 105.08318741 93.86434631 105.28746857 94.72415161 105.49794006 C102.66778043 107.52427789 110.56779204 109.86698699 115.8125 116.5 C118.39877465 121.31582176 119.49418157 125.04654748 118.8125 130.5 C116.92317415 135.32489129 114.20973438 138.70175994 109.8125 141.5 C104.14137589 143.79866686 98.47137385 145.47940874 92.5390625 146.953125 C91.66531982 147.17425964 90.79157715 147.39539429 89.89135742 147.62322998 C88.03215003 148.09346666 86.17245707 148.56178713 84.31231689 149.02832031 C79.47627464 150.24233623 74.64474982 151.4741182 69.8125 152.703125 C68.38630844 153.06525085 68.38630844 153.06525085 66.93130493 153.43469238 C59.09175246 155.42571679 51.25740445 157.43297354 43.4375 159.5 C42.40705566 159.76586914 41.37661133 160.03173828 40.31494141 160.30566406 C39.37827637 160.55541992 38.44161133 160.80517578 37.4765625 161.0625 C36.68717285 161.27003906 35.8977832 161.47757813 35.08447266 161.69140625 C31.14993009 163.09170767 28.48092051 164.21820976 26.49633789 168.02392578 C26.15852295 169.1117334 25.82070801 170.19954102 25.47265625 171.3203125 C25.27446793 171.95542755 25.0762796 172.5905426 24.87208557 173.24490356 C20.77856238 186.81092547 17.63999664 200.68179018 14.24829102 214.4375 C13.59145301 217.09952793 12.93015133 219.76037904 12.26441956 222.42019653 C11.64387145 224.90153701 11.03013541 227.38459472 10.42442322 229.86959839 C5.85347518 248.09939051 5.85347518 248.09939051 -1.1875 252.5 C-1.80625 252.891875 -2.425 253.28375 -3.0625 253.6875 C-9.09453668 255.99386697 -13.10852982 255.55013043 -18.87890625 253.09375 C-25.08550116 248.80899413 -28.06677308 243.51600452 -29.75 236.3125 C-29.94851562 235.53567871 -30.14703125 234.75885742 -30.3515625 233.95849609 C-30.98160467 231.47646674 -31.58453798 228.98872938 -32.1875 226.5 C-32.60079453 224.86015397 -33.01615534 223.22082731 -33.43359375 221.58203125 C-34.9220134 215.71474708 -36.36674168 209.83689554 -37.8125 203.95898438 C-39.04437238 198.95835242 -40.291695 193.9620795 -41.5625 188.97119141 C-41.98505011 187.30046788 -42.40156007 185.62820691 -42.8125 183.95458984 C-43.42074495 181.48597069 -44.05153136 179.02410241 -44.6875 176.5625 C-44.86474609 175.82306152 -45.04199219 175.08362305 -45.22460938 174.32177734 C-46.52460164 169.41943811 -48.18136453 166.61497762 -52.1875 163.5 C-55.28542518 162.05222498 -55.28542518 162.05222498 -58.8515625 161.09765625 C-59.87088364 160.79759422 -59.87088364 160.79759422 -60.91079712 160.49147034 C-73.19501327 156.96127582 -85.67634746 154.09117913 -98.09521484 151.08129883 C-101.53116357 150.24656737 -104.96485287 149.40298856 -108.3984375 148.55859375 C-109.4340683 148.31056503 -110.4696991 148.06253632 -111.53671265 147.80699158 C-131.85629581 142.79576051 -131.85629581 142.79576051 -136.40625 135.5625 C-139.24556789 130.03734086 -139.92216451 125.49763089 -138.1875 119.5 C-135.53702304 113.98700792 -131.59475618 111.09888881 -126.1875 108.5 C-120.67471802 106.63971653 -115.07071274 105.19564394 -109.4375 103.75 C-107.80906494 103.32130357 -106.18089484 102.89159956 -104.55297852 102.4609375 C-96.01458377 100.21391748 -87.45402462 98.05565789 -78.88671875 95.921875 C-78.06114471 95.71620911 -77.23557068 95.51054321 -76.38497925 95.29864502 C-72.41375678 94.31134002 -68.44073997 93.33246549 -64.46386719 92.36816406 C-63.73456497 92.18956848 -63.00526276 92.0109729 -62.25386047 91.82696533 C-60.28976653 91.34614202 -58.32449061 90.87015413 -56.35913086 90.39453125 C-52.53684369 89.41052573 -52.53684369 89.41052573 -49.1875 87.5 C-47.8405896 84.75105508 -47.8405896 84.75105508 -46.90625 81.2421875 C-46.70334351 80.55559052 -46.50043701 79.86899353 -46.29138184 79.16159058 C-42.33359707 65.42511656 -39.09300421 51.46829194 -35.69873047 37.58300781 C-35.0499016 34.93062889 -34.39470768 32.27997112 -33.73278809 29.63082886 C-33.11636565 27.16231203 -32.5090827 24.69148763 -31.91271973 22.2180481 C-29.89852672 14.2063774 -27.59292008 6.18153522 -21.875 0 C-13.98171209 -4.40555604 -7.99456296 -3.76214728 0 0 Z M-11.1875 43.5 C-13.41824587 50.37451931 -15.43455946 57.24006081 -17.08203125 64.27734375 C-17.23960907 64.94311432 -17.39718689 65.60888489 -17.55953979 66.29483032 C-18.2037039 69.02300433 -18.84552481 71.75131612 -19.46118164 74.48608398 C-22.26889793 86.88596664 -25.55895181 99.59623448 -36.1875 107.5 C-41.55025634 110.87592258 -47.42764253 112.66257617 -53.5 114.3125 C-54.38067139 114.55822754 -55.26134277 114.80395508 -56.16870117 115.05712891 C-68.13177186 118.36432944 -80.16142238 121.43155047 -92.1875 124.5 C-91.8575 125.49 -91.5275 126.48 -91.1875 127.5 C-88.64780442 128.43567732 -86.23978161 129.15560362 -83.625 129.8125 C-82.83722168 130.02197266 -82.04944336 130.23144531 -81.23779297 130.44726562 C-76.53127848 131.68586986 -71.80515263 132.83923796 -67.07421875 133.98046875 C-36.53745574 141.36266866 -36.53745574 141.36266866 -29.1875 150.5 C-25.73550065 156.26642741 -23.72342377 162.46647529 -21.8125 168.875 C-21.51722412 169.85218994 -21.22194824 170.82937988 -20.91772461 171.83618164 C-17.45081605 183.58736221 -14.79020076 195.53277902 -12.1875 207.5 C-11.1975 207.5 -10.2075 207.5 -9.1875 207.5 C-8.87522461 206.24453369 -8.56294922 204.98906738 -8.24121094 203.69555664 C-7.07158651 199.00254233 -5.89113123 194.31230704 -4.70751953 189.62280273 C-4.198412 187.59944733 -3.69217695 185.57536677 -3.18896484 183.55053711 C-2.46179796 180.62675025 -1.72406545 177.70579658 -0.984375 174.78515625 C-0.76440857 173.89103531 -0.54444214 172.99691437 -0.31781006 172.07569885 C2.43584934 161.30511784 6.65788386 149.45559113 16.375 143.1875 C28.67038955 136.72195468 43.13388497 134.40839489 56.56762695 131.27636719 C59.04006545 130.69817949 61.51032404 130.11133481 63.98046875 129.5234375 C64.73869431 129.34944427 65.49691986 129.17545105 66.27812195 128.9961853 C70.45679402 128.04609765 70.45679402 128.04609765 73.8125 125.5 C71.48098386 124.82645089 69.14781553 124.16020334 66.8125 123.5 C66.04228516 123.28214844 65.27207031 123.06429687 64.47851562 122.83984375 C58.95857618 121.30582869 53.41382253 119.90178434 47.84375 118.5625 C46.42577104 118.2187921 45.00780238 117.87504175 43.58984375 117.53125 C41.46792237 117.0173132 39.34543669 116.50768292 37.21923828 116.01171875 C14.20238053 110.64093667 14.20238053 110.64093667 7.8125 100.5 C3.42264409 92.30148038 1.02092388 83.72447274 -1.25 74.75 C-1.57548828 73.49445313 -1.90097656 72.23890625 -2.23632812 70.9453125 C-3.5923707 65.71447895 -4.94197487 60.48242888 -6.25341797 55.24023438 C-6.6048705 53.86321161 -6.95658754 52.48625633 -7.30859375 51.109375 C-7.62111084 49.86639648 -7.93362793 48.62341797 -8.25561523 47.34277344 C-8.71689819 45.93560059 -8.71689819 45.93560059 -9.1875 44.5 C-10.1775 44.005 -10.1775 44.005 -11.1875 43.5 Z " fill="#BA73F9" transform="translate(144.1875,9.5)"/>
<path d="M0 0 C4.69709964 1.78489786 7.26978706 3.79615749 10 8 C10.44060782 10.72555476 10.69264355 13.0880684 10.75 15.8125 C10.77964844 16.50537109 10.80929688 17.19824219 10.83984375 17.91210938 C10.90999628 19.60746213 10.95732662 21.30373312 11 23 C11.95261719 23.03738281 12.90523437 23.07476562 13.88671875 23.11328125 C15.14097656 23.17902344 16.39523438 23.24476562 17.6875 23.3125 C18.92886719 23.37050781 20.17023438 23.42851563 21.44921875 23.48828125 C25.12908887 24.01860357 27.05892009 24.77715173 30 27 C32.82409448 30.79023206 34.37801988 33.35614235 34.0625 38.125 C33.28152603 42.27140818 31.31925365 44.39201499 28 47 C24.43913342 48.18695553 21.02668976 48.35095418 17.3125 48.5625 C16.2596582 48.62727539 16.2596582 48.62727539 15.18554688 48.69335938 C13.45724794 48.7991736 11.7286489 48.90006581 10 49 C10.05220703 50.53720703 10.05220703 50.53720703 10.10546875 52.10546875 C10.13362035 53.46612936 10.16091904 54.8268078 10.1875 56.1875 C10.21263672 56.86103516 10.23777344 57.53457031 10.26367188 58.22851562 C10.32907829 62.69795374 9.84051619 65.5083992 7 69 C2.58737763 72.06924473 -2.8605143 71.74728427 -8 71 C-11.91200696 68.20570931 -13.53292107 65.49818034 -15 61 C-15.1953125 57.88671875 -15.1953125 57.88671875 -15.125 54.6875 C-15.10695312 53.61886719 -15.08890625 52.55023438 -15.0703125 51.44921875 C-15.04710937 50.64097656 -15.02390625 49.83273438 -15 49 C-16.02480469 48.96261719 -17.04960937 48.92523438 -18.10546875 48.88671875 C-19.46618062 48.82102921 -20.82685611 48.75458291 -22.1875 48.6875 C-22.86103516 48.66494141 -23.53457031 48.64238281 -24.22851562 48.61914062 C-28.60913504 48.384083 -31.51087815 47.68541188 -35 45 C-37.62579287 41.0613107 -38.05616105 37.69345893 -38 33 C-36.81252727 29.43758182 -35.8301583 27.6443247 -32.87109375 25.34765625 C-29.25236885 23.64907109 -26.09211588 23.66677749 -22.1875 23.8125 C-21.14819336 23.83280273 -21.14819336 23.83280273 -20.08789062 23.85351562 C-18.39158735 23.88861155 -16.69568864 23.94241057 -15 24 C-15.05220703 22.83984375 -15.05220703 22.83984375 -15.10546875 21.65625 C-15.27823608 15.00882114 -15.16913668 9.9157218 -12 4 C-8.06964744 0.50635328 -5.23412229 -0.7633095 0 0 Z " fill="#BE73FC" transform="translate(229,18)"/>
<path d="M0 0 C2.9375 1.6875 2.9375 1.6875 5 4 C5.3403125 5.423125 5.3403125 5.423125 5.6875 6.875 C7.54954954 11.30845128 10.62647354 12.43961247 14.78515625 14.60546875 C17 16 17 16 18 19 C18.60353862 24.08696839 18.90128837 27.76394738 15.8125 32 C13 34 13 34 10.5 34.8125 C7.05003085 36.45123535 6.06665276 38.86755195 4.171875 42.08984375 C2.68251579 44.51749926 1.61250214 45.80571331 -1 47 C-5.19237094 47.39927342 -7.84549344 47.44605935 -11.75 45.9375 C-14.21707276 43.81307623 -15.29423472 41.63391807 -16.765625 38.76953125 C-18.68466231 36.01850625 -21.29671565 34.75090442 -24.1640625 33.109375 C-27.56140925 31.05651016 -28.68268385 28.93079405 -29.9375 25.25 C-30.02424569 20.73922387 -28.5776945 17.6604878 -26 14 C-23.01628283 11.67124513 -21.78409145 11 -18 11 C-17.773125 10.113125 -17.54625 9.22625 -17.3125 8.3125 C-13.85043374 -0.4250958 -8.39280226 -1.85861365 0 0 Z " fill="#BD6EF8" transform="translate(46,182)"/>
<path d="M0 0 C4.69709964 1.78489786 7.26978706 3.79615749 10 8 C10.44060782 10.72555476 10.69264355 13.0880684 10.75 15.8125 C10.77964844 16.50537109 10.80929688 17.19824219 10.83984375 17.91210938 C10.90999628 19.60746213 10.95732662 21.30373312 11 23 C17.93 23.495 17.93 23.495 25 24 C25 24.33 25 24.66 25 25 C19.72 25 14.44 25 9 25 C7.95023036 21.85069107 7.89868405 19.61185544 7.9375 16.3125 C7.94652344 15.31863281 7.95554688 14.32476562 7.96484375 13.30078125 C7.97644531 12.54152344 7.98804688 11.78226563 8 11 C6.35 11 4.7 11 3 11 C2.20046862 7.71303767 1.90341064 6.28976808 3 3 C-1.91130503 2.6491925 -4.71279822 3.6615263 -9 6 C-9.66 6 -10.32 6 -11 6 C-10.67 6.99 -10.34 7.98 -10 9 C-10.63718601 11.00958663 -11.31163487 13.00736409 -12 15 C-12.73940847 18.3198944 -13.37881018 21.65614841 -14 25 C-15.03640625 25.06058594 -16.0728125 25.12117188 -17.140625 25.18359375 C-18.51042873 25.26803371 -19.88021975 25.35267997 -21.25 25.4375 C-21.93191406 25.47681641 -22.61382812 25.51613281 -23.31640625 25.55664062 C-26.64448041 25.76666472 -29.80255402 26.01934002 -33 27 C-33 27.99 -33 28.98 -33 30 C-33.99 30 -34.98 30 -36 30 C-35.09569886 27.73924715 -34.41872271 26.29556897 -32.40625 24.875 C-29.03352504 23.64855456 -25.78569363 23.7881115 -22.25 23.875 C-21.20392578 23.88853516 -21.20392578 23.88853516 -20.13671875 23.90234375 C-18.42433042 23.92580112 -16.71211996 23.96166896 -15 24 C-15.05220703 22.83984375 -15.05220703 22.83984375 -15.10546875 21.65625 C-15.27823608 15.00882114 -15.16913668 9.9157218 -12 4 C-8.06964744 0.50635328 -5.23412229 -0.7633095 0 0 Z " fill="#894DBC" transform="translate(229,18)"/>
<path d="M0 0 C2.375 0.1875 2.375 0.1875 5 1 C5.226875 1.78375 5.45375 2.5675 5.6875 3.375 C6.73949177 6.18750166 6.73949177 6.18750166 9.33984375 6.99609375 C11.88120788 7.74103779 14.41761747 8.41396116 17 9 C16.67 9.99 16.34 10.98 16 12 C16.60328125 11.82082031 17.2065625 11.64164063 17.828125 11.45703125 C24.40099139 9.70780068 24.40099139 9.70780068 27.5625 11.25 C29 13 29 13 29 15 C29.85464844 15.13277344 30.70929688 15.26554687 31.58984375 15.40234375 C32.69457031 15.57894531 33.79929688 15.75554687 34.9375 15.9375 C36.03964844 16.11152344 37.14179688 16.28554687 38.27734375 16.46484375 C41 17 41 17 42 18 C44.01594582 18.23427778 46.038474 18.41336124 48.0625 18.5625 C49.16722656 18.64628906 50.27195313 18.73007813 51.41015625 18.81640625 C52.26480469 18.87699219 53.11945313 18.93757813 54 19 C54 19.66 54 20.32 54 21 C54.61875 21.12375 55.2375 21.2475 55.875 21.375 C58 22 58 22 60 24 C54.50378469 23.39946341 49.26923524 22.46970796 43.9140625 21.109375 C43.17223724 20.92288391 42.43041199 20.73639282 41.66610718 20.54425049 C40.10746442 20.15014013 38.54949569 19.75335516 36.9921875 19.35400391 C34.64084022 18.75404174 32.28557476 18.17168396 29.9296875 17.58984375 C8.8160899 12.26964036 8.8160899 12.26964036 2.875 4.75 C2.31554687 4.06421875 1.75609375 3.3784375 1.1796875 2.671875 C0 1 0 1 0 0 Z " fill="#8B56CA" transform="translate(151,109)"/>
<path d="M0 0 C0.33 0 0.66 0 1 0 C0.20006921 31.95723513 0.20006921 31.95723513 -11 43 C-12.32 42.67 -13.64 42.34 -15 42 C-14.38898438 41.80664062 -13.77796875 41.61328125 -13.1484375 41.4140625 C-9.94956654 39.3086238 -9.68803023 37.01644397 -8.625 33.375 C-8.42366455 32.694375 -8.2223291 32.01375 -8.01489258 31.3125 C-5.02287877 20.96469342 -2.53172584 10.46778824 0 0 Z " fill="#B869F8" transform="translate(106,57)"/>
<path d="M0 0 C3.95241506 2.18644238 4.80871959 3.45348456 6.3125 7.75 C6.539375 8.8225 6.76625 9.895 7 11 C6.34 11 5.68 11 5 11 C4.34 9.02 3.68 7.04 3 5 C1.68 5 0.36 5 -1 5 C-1.33 5.66 -1.66 6.32 -2 7 C-2.33 6.01 -2.66 5.02 -3 4 C-5.97 4 -8.94 4 -12 4 C-12.33 4.99 -12.66 5.98 -13 7 C-15.0625 8.1875 -15.0625 8.1875 -17 9 C-16.13537897 5.19566747 -15.29314388 3.27884418 -12.4375 0.5625 C-7.9173874 -1.49209664 -4.72858616 -1.34354662 0 0 Z " fill="#A55BDA" transform="translate(46,182)"/>
<path d="M0 0 C0.99 0.33 1.98 0.66 3 1 C3.13277344 1.78246094 3.26554687 2.56492188 3.40234375 3.37109375 C3.57894531 4.38300781 3.75554687 5.39492187 3.9375 6.4375 C4.11152344 7.44683594 4.28554687 8.45617187 4.46484375 9.49609375 C4.74751097 11.9287438 4.74751097 11.9287438 6 13 C6.49479365 15.47694896 6.94701251 17.94894626 7.375 20.4375 C8.58871491 30.96973061 8.58871491 30.96973061 13 40 C13.07226502 41.85287502 13.0838122 43.70833878 13.0625 45.5625 C13.05347656 46.57441406 13.04445313 47.58632812 13.03515625 48.62890625 C13.02355469 49.41136719 13.01195313 50.19382813 13 51 C11.00471463 47.4778397 10.11869815 43.91593118 9.16015625 39.99609375 C8.90872108 38.97830589 8.90872108 38.97830589 8.65220642 37.93995667 C8.11782557 35.77354321 7.58986986 33.60562973 7.0625 31.4375 C6.36792472 28.60236123 5.67041697 25.76794989 4.97265625 22.93359375 C4.72112289 21.90545059 4.72112289 21.90545059 4.46450806 20.85653687 C3.25595808 15.94438744 1.93411565 11.07376075 0.51342773 6.21899414 C0 4 0 4 0 0 Z " fill="#7042AB" transform="translate(99,181)"/>
<path d="M0 0 C5.28 0 10.56 0 16 0 C16 3.96 16 7.92 16 12 C16.66 12 17.32 12 18 12 C18 13.98 18 15.96 18 18 C18.99 18 19.98 18 21 18 C22.6875 19.375 22.6875 19.375 24 21 C24 21.66 24 22.32 24 23 C27.3 22.67 30.6 22.34 34 22 C33.505 20.515 33.505 20.515 33 19 C33.99 19 34.98 19 36 19 C36 17.35 36 15.7 36 14 C36.495 15.485 36.495 15.485 37 17 C37.66 17 38.32 17 39 17 C37.5306305 21.65300343 37.5306305 21.65300343 35.26171875 23.13671875 C30.95357152 24.78110655 26.52116135 24.65737954 22 24 C18.08799304 21.20570931 16.46707893 18.49818034 15 14 C14.74777221 9.97948906 14.91134196 6.03394086 15 2 C10.05 1.67 5.1 1.34 0 1 C0 0.67 0 0.34 0 0 Z " fill="#683A9E" transform="translate(199,65)"/>
<path d="M0 0 C-0.54269531 0.23074219 -1.08539063 0.46148437 -1.64453125 0.69921875 C-6.23089536 2.78993969 -8.81019974 4.25543277 -11 9 C-13 12 -13 12 -15.25 12.5625 C-16.1575 12.706875 -17.065 12.85125 -18 13 C-20.00744615 13.64389782 -22.00945124 14.30562253 -24 15 C-22.5983331 9.70481392 -19.38366012 6.97684721 -15 4 C-4.60976704 -1.73810888 -4.60976704 -1.73810888 0 0 Z " fill="#C472FA" transform="translate(175,148)"/>
<path d="M0 0 C0.66 0.33 1.32 0.66 2 1 C-3.1199926 5.00488133 -7.74939195 7.28145828 -13.9375 9.1875 C-14.69740234 9.43435547 -15.45730469 9.68121094 -16.24023438 9.93554688 C-28.93216667 14 -28.93216667 14 -35 14 C-35 13.34 -35 12.68 -35 12 C-34.030625 11.9175 -33.06125 11.835 -32.0625 11.75 C-28.18606083 11.19954564 -25.06192164 9.77356891 -21.5390625 8.12109375 C-15.60696739 5.5018456 -9.51864345 3 -3 3 C-3 2.34 -3 1.68 -3 1 C-2.01 0.67 -1.02 0.34 0 0 Z " fill="#824FC2" transform="translate(110,114)"/>
<path d="M0 0 C1.875 0.1875 1.875 0.1875 4 1 C7.2282688 6.6494704 6.26053114 12.90965853 4.83203125 19.00390625 C4 21 4 21 1.0625 23.125 C-2 24 -2 24 -5 23 C-4.505 21.515 -4.505 21.515 -4 20 C-2.35 19.67 -0.7 19.34 1 19 C1 18.01 1 17.02 1 16 C1.66 16 2.32 16 3 16 C3 12.7 3 9.4 3 6 C2.34 6 1.68 6 1 6 C1 5.01 1 4.02 1 3 C0.34 3 -0.32 3 -1 3 C-0.67 2.01 -0.34 1.02 0 0 Z " fill="#C375FA" transform="translate(254,124)"/>
<path d="M0 0 C0.33 1.32 0.66 2.64 1 4 C0.34 4 -0.32 4 -1 4 C-0.95875 5.093125 -0.9175 6.18625 -0.875 7.3125 C-1 11 -1 11 -3 14 C-3.44429438 16.04869074 -3.81294195 18.11454293 -4.125 20.1875 C-4.37636719 21.81751953 -4.37636719 21.81751953 -4.6328125 23.48046875 C-4.75398437 24.31191406 -4.87515625 25.14335937 -5 26 C-5.66 26 -6.32 26 -7 26 C-7.8441938 29.97977076 -8.44687265 33.97007218 -9 38 C-9.66 38 -10.32 38 -11 38 C-10.35623569 30.85769601 -8.57364815 24.20121277 -6.625 17.3125 C-6.32078125 16.19810547 -6.0165625 15.08371094 -5.703125 13.93554688 C-5.40148437 12.85982422 -5.09984375 11.78410156 -4.7890625 10.67578125 C-4.51787598 9.70552002 -4.24668945 8.73525879 -3.96728516 7.7355957 C-2.95846111 4.88252316 -1.64042588 2.53507249 0 0 Z " fill="#7C47B3" transform="translate(150,163)"/>
<path d="M0 0 C3.25696479 0.41755959 4.63443291 0.63443291 7 3 C7.30599063 5.56916657 7.51087087 8.04758384 7.625 10.625 C7.66367188 11.33140625 7.70234375 12.0378125 7.7421875 12.765625 C7.83647724 14.50998524 7.91932891 16.25495691 8 18 C14.93 18.495 14.93 18.495 22 19 C22 19.33 22 19.66 22 20 C16.72 20 11.44 20 6 20 C4.95023036 16.85069107 4.89868405 14.61185544 4.9375 11.3125 C4.94652344 10.31863281 4.95554688 9.32476562 4.96484375 8.30078125 C4.97644531 7.54152344 4.98804688 6.78226563 5 6 C3.35 6 1.7 6 0 6 C-0.38218767 4.34385343 -0.71395102 2.67542976 -1 1 C-0.67 0.67 -0.34 0.34 0 0 Z " fill="#8C50BF" transform="translate(232,23)"/>
<path d="M0 0 C-0.6875 2.375 -0.6875 2.375 -2 5 C-4.91456338 6.56938028 -6.67941669 7 -10 7 C-10.66 8.32 -11.32 9.64 -12 11 C-12.99 11 -13.98 11 -15 11 C-15.75 9.25 -15.75 9.25 -16 7 C-12.27518829 1.87838391 -6.25016846 -0.56819713 0 0 Z " fill="#C975FC" transform="translate(180,147)"/>
<path d="M0 0 C3 2 3 2 3.9375 5.6875 C4.37598585 10.60033127 2.9565476 13.10980579 0 17 C-4.1024785 19.19590169 -8.25176835 19.41477294 -12.8125 19.625 C-15.184375 19.74875 -17.55625 19.8725 -20 20 C-20 24.95 -20 29.9 -20 35 C-20.33 35 -20.66 35 -21 35 C-21.02684679 32.35409986 -21.04676357 29.70846904 -21.0625 27.0625 C-21.07087891 26.30775391 -21.07925781 25.55300781 -21.08789062 24.77539062 C-21.09652441 22.85005687 -21.05224333 20.92464419 -21 19 C-19.08817842 17.08817842 -15.68058246 17.64633192 -13.125 17.5 C-7.97268808 17.22167685 -7.97268808 17.22167685 -3 16 C-3 15.34 -3 14.68 -3 14 C-1.35 13.34 0.3 12.68 2 12 C1.85831863 10.56208484 1.71148957 9.1246763 1.5625 7.6875 C1.48128906 6.88699219 1.40007812 6.08648437 1.31640625 5.26171875 C1.04734307 2.83912821 1.04734307 2.83912821 0 0 Z " fill="#5D3492" transform="translate(259,47)"/>
<path d="M0 0 C1.98 0 3.96 0 6 0 C3.1919355 2.30801471 0.82708455 3.5631176 -2.66796875 4.53515625 C-3.56193359 4.78716797 -4.45589844 5.03917969 -5.37695312 5.29882812 C-6.30443359 5.55083984 -7.23191406 5.80285156 -8.1875 6.0625 C-9.09564453 6.31837891 -10.00378906 6.57425781 -10.93945312 6.83789062 C-27.90651139 11.56243298 -27.90651139 11.56243298 -34 10 C-34 9.67 -34 9.34 -34 9 C-33.02417969 8.86722656 -32.04835937 8.73445312 -31.04296875 8.59765625 C-29.13451172 8.33275391 -29.13451172 8.33275391 -27.1875 8.0625 C-25.29064453 7.80146484 -25.29064453 7.80146484 -23.35546875 7.53515625 C-20.01678297 7.09607545 -20.01678297 7.09607545 -17 6 C-16.67 5.34 -16.34 4.68 -16 4 C-16 4.66 -16 5.32 -16 6 C-14.68 6 -13.36 6 -12 6 C-12 5.34 -12 4.68 -12 4 C-8.01939223 2.82923301 -4.08378283 1.74250597 0 1 C0 0.67 0 0.34 0 0 Z " fill="#8659C3" transform="translate(250,149)"/>
<path d="M0 0 C0.99 0.495 0.99 0.495 2 1 C2 2.32 2 3.64 2 5 C3.32 5 4.64 5 6 5 C6 10.28 6 15.56 6 21 C6.99 21.33 7.98 21.66 9 22 C8.67 23.32 8.34 24.64 8 26 C4.58716764 21.42565746 3.003622 17.41354311 1.75 11.875 C1.57726562 11.17246094 1.40453125 10.46992188 1.2265625 9.74609375 C0.42384142 6.37593938 0 3.4849271 0 0 Z " fill="#9C5CD1" transform="translate(112,232)"/>
<path d="M0 0 C1.05669101 3.17007302 0.98570327 3.92014894 0.19555664 7.01245117 C-0.10486794 8.2133564 -0.10486794 8.2133564 -0.41136169 9.43852234 C-0.63526077 10.29798965 -0.85915985 11.15745697 -1.08984375 12.04296875 C-1.31321915 12.9265657 -1.53659454 13.81016266 -1.76673889 14.72053528 C-2.48262822 17.54488008 -3.20991233 20.36614867 -3.9375 23.1875 C-4.42458086 25.10071998 -4.91091836 27.01412937 -5.39648438 28.92773438 C-6.5890386 33.62073179 -7.79182097 38.31100189 -9 43 C-9.33 43 -9.66 43 -10 43 C-10.18309406 37.69027217 -9.81180536 34.03279267 -8 29 C-7.44086095 26.36520808 -6.94421106 23.72460497 -6.46484375 21.07421875 C-6 19 -6 19 -5 18 C-4.814375 16.2365625 -4.814375 16.2365625 -4.625 14.4375 C-4.04436567 9.23988626 -2.34124634 4.68249268 0 0 Z " fill="#572D95" transform="translate(167,183)"/>
<path d="M0 0 C5.7097955 0.41778991 8.60957142 2.57546571 13 6 C12.67 6.66 12.34 7.32 12 8 C10.68 7.67 9.36 7.34 8 7 C7.67 7.66 7.34 8.32 7 9 C7.66 9 8.32 9 9 9 C7.75023244 12.65316671 7.32901247 13.78065836 4 16 C3.67 12.37 3.34 8.74 3 5 C3.99 5 4.98 5 6 5 C6 4.34 6 3.68 6 3 C5.195625 2.87625 4.39125 2.7525 3.5625 2.625 C2.716875 2.41875 1.87125 2.2125 1 2 C0.67 1.34 0.34 0.68 0 0 Z " fill="#A564DB" transform="translate(246,118)"/>
<path d="M0 0 C3.66972279 4.62704178 4.49394468 8.0726638 4 14 C2.40096029 17.93427098 0.58847747 20.60768169 -3 23 C-3 21.68 -3 20.36 -3 19 C-2.34 19 -1.68 19 -1 19 C-1.020625 17.88625 -1.04125 16.7725 -1.0625 15.625 C-1 12 -1 12 0 10 C0.06996014 8.29297265 0.08440154 6.58331997 0.0625 4.875 C0.05347656 3.96492187 0.04445313 3.05484375 0.03515625 2.1171875 C0.02355469 1.41851562 0.01195312 0.71984375 0 0 Z " fill="#7A43AA" transform="translate(259,126)"/>
<path d="M0 0 C0.66 0 1.32 0 2 0 C1.70544888 7.65832917 -1.37172342 13.34261178 -5 20 C-5.33 18.68 -5.66 17.36 -6 16 C-5.34 16 -4.68 16 -4 16 C-4 15.01 -4 14.02 -4 13 C-4.66 13 -5.32 13 -6 13 C-5.67 10.69 -5.34 8.38 -5 6 C-3.35 5.34 -1.7 4.68 0 4 C0 2.68 0 1.36 0 0 Z " fill="#975ADE" transform="translate(121,90)"/>
<path d="M0 0 C7.2651357 -0.25052192 7.2651357 -0.25052192 10.75 0.9375 C15.71963981 2.56218994 20.80356852 2.68047832 26 3 C26 3.66 26 4.32 26 5 C26.61875 5.12375 27.2375 5.2475 27.875 5.375 C30 6 30 6 32 8 C24.97481339 7.32646876 18.3255596 5.69695944 11.5 3.9375 C10.39140625 3.65583984 9.2828125 3.37417969 8.140625 3.08398438 C5.4259563 2.39361604 2.71249362 1.69885625 0 1 C0 0.67 0 0.34 0 0 Z " fill="#9E65D6" transform="translate(179,125)"/>
<path d="M0 0 C0 0.66 0 1.32 0 2 C-0.78375 2.37125 -1.5675 2.7425 -2.375 3.125 C-5.41379655 5.29556897 -6.00777968 6.91389838 -6.73046875 10.52734375 C-7.25551284 15.34405261 -7.14509429 20.16352383 -7 25 C-9 24 -9 24 -10.1875 21.5 C-11.55010456 15.63031882 -11.04436679 10.94468298 -8.1875 5.625 C-3.5 0 -3.5 0 0 0 Z " fill="#7C44AC" transform="translate(16,120)"/>
<path d="M0 0 C0.33 0 0.66 0 1 0 C1 5.28 1 10.56 1 16 C-0.32 16.33 -1.64 16.66 -3 17 C-3 17.66 -3 18.32 -3 19 C-4.32 19 -5.64 19 -7 19 C-8.00496852 15.98509443 -8.10335303 13.95818308 -8.0625 10.8125 C-8.05347656 9.91144531 -8.04445312 9.01039063 -8.03515625 8.08203125 C-8.02355469 7.39496094 -8.01195312 6.70789063 -8 6 C-7.67 6 -7.34 6 -7 6 C-6.34 9.3 -5.68 12.6 -5 16 C-2.79334596 12.69001895 -2.21737905 10.17978564 -1.375 6.3125 C-1.11460937 5.13300781 -0.85421875 3.95351562 -0.5859375 2.73828125 C-0.39257812 1.83464844 -0.19921875 0.93101562 0 0 Z " fill="#8755C2" transform="translate(138,201)"/>
<path d="M0 0 C0.99 0.33 1.98 0.66 3 1 C3.33 3.31 3.66 5.62 4 8 C4.99 8 5.98 8 7 8 C8.03590199 13.05002222 8.10251672 17.87416389 8 23 C4.78332881 19.38714057 3.66485767 15.47668238 2.3125 10.9375 C2.08755859 10.21755859 1.86261719 9.49761719 1.63085938 8.75585938 C0.70979132 5.74069131 0 3.16988272 0 0 Z " fill="#8953C7" transform="translate(143,85)"/>
<path d="M0 0 C3.78944914 0.8661598 5.56940783 2.37329252 7.6875 5.5 C10.36906471 10.08733082 11.2836904 14.78270021 12 20 C11.34 20 10.68 20 10 20 C9.87882813 19.43410156 9.75765625 18.86820313 9.6328125 18.28515625 C9.46523437 17.55167969 9.29765625 16.81820313 9.125 16.0625 C8.96257812 15.33160156 8.80015625 14.60070312 8.6328125 13.84765625 C8.17038477 11.79299706 8.17038477 11.79299706 6 11 C5.34 10.01 4.68 9.02 4 8 C3.01 7.67 2.02 7.34 1 7 C1.020625 6.21625 1.04125 5.4325 1.0625 4.625 C1.18684063 2.01885039 1.18684063 2.01885039 0 0 Z " fill="#8752B3" transform="translate(141,9)"/>
<path d="M0 0 C3.87967644 1.14626804 7.00412353 2.22604031 10 5 C11.44667591 9.34002773 11.66370444 13.46949577 11 18 C8.625 21.125 8.625 21.125 6 23 C5.34 23 4.68 23 4 23 C4 22.01 4 21.02 4 20 C4.99 20 5.98 20 7 20 C7 19.34 7 18.68 7 18 C7.66 18 8.32 18 9 18 C8.67 13.71 8.34 9.42 8 5 C6.68 5 5.36 5 4 5 C4 4.34 4 3.68 4 3 C2.68 2.34 1.36 1.68 0 1 C0 0.67 0 0.34 0 0 Z " fill="#7F4AB4" transform="translate(53,193)"/>
<path d="M0 0 C0 0.33 0 0.66 0 1 C-3.96 0.67 -7.92 0.34 -12 0 C-12.33 1.32 -12.66 2.64 -13 4 C-15.5 5.125 -15.5 5.125 -18 6 C-18.33 6.66 -18.66 7.32 -19 8 C-19.99 7.67 -20.98 7.34 -22 7 C-20.59008837 3.59271356 -19.2024372 1.85404259 -16 0 C-9.77263305 -2.17957843 -6.25266057 -2.00978376 0 0 Z " fill="#7948AC" transform="translate(141,8)"/>
<path d="M0 0 C0.33 0 0.66 0 1 0 C1.09765625 6.15234375 1.09765625 6.15234375 1 8 C0.67 8.33 0.34 8.66 0 9 C-0.07976744 10.70761418 -0.13861128 12.41622297 -0.1875 14.125 C-0.6367671 20.06617015 -2.63236608 23.08649316 -7 27 C-8.32 26.67 -9.64 26.34 -11 26 C-10.39414063 25.82726562 -9.78828125 25.65453125 -9.1640625 25.4765625 C-5.88466581 23.2389958 -5.38357585 20.03108745 -4.375 16.375 C-4.17132813 15.68792969 -3.96765625 15.00085938 -3.7578125 14.29296875 C-2.37294221 9.56132858 -1.17279458 4.78801455 0 0 Z " fill="#7943B2" transform="translate(102,73)"/>
<path d="M0 0 C0.99 0 1.98 0 3 0 C5.37590142 3.70416126 5.20500286 6.92984573 5.125 11.25 C5.10695312 12.51328125 5.08890625 13.7765625 5.0703125 15.078125 C5.04710937 16.04234375 5.02390625 17.0065625 5 18 C4.67 18 4.34 18 4 18 C3.01 14.04 2.02 10.08 1 6 C0.01 6.495 0.01 6.495 -1 7 C-0.67 4.69 -0.34 2.38 0 0 Z " fill="#7B4DB3" transform="translate(133,48)"/>
<path d="M0 0 C0 0.66 0 1.32 0 2 C0.99 2.33 1.98 2.66 3 3 C-3.20970773 3.33266291 -7.28264895 2.45029331 -13 0 C-7.92632374 -3.38245084 -4.96359619 -3.82905992 0 0 Z " fill="#A86FF2" transform="translate(180,122)"/>
<path d="M0 0 C0.93423645 3.01031744 1.04449911 3.86650268 0 7 C-0.1256032 8.72774185 -0.22708843 10.45730553 -0.3125 12.1875 C-0.74996184 17.67035504 -2.23811066 21.27806017 -5 26 C-6.19784792 22.51664404 -5.78454679 20.30493975 -4.78515625 16.796875 C-4.51123047 15.8171875 -4.23730469 14.8375 -3.95507812 13.828125 C-3.66052734 12.81234375 -3.36597656 11.7965625 -3.0625 10.75 C-2.77181641 9.71875 -2.48113281 8.6875 -2.18164062 7.625 C-1.46311846 5.0807248 -0.73563156 2.53937099 0 0 Z " fill="#6B3AA9" transform="translate(116,19)"/>
<path d="M0 0 C-3.76926669 1.00597015 -7.54065412 2.00374802 -11.3125 3 C-12.38435547 3.28617188 -13.45621094 3.57234375 -14.56054688 3.8671875 C-16.10258789 4.27324219 -16.10258789 4.27324219 -17.67578125 4.6875 C-18.62364502 4.93886719 -19.57150879 5.19023437 -20.5480957 5.44921875 C-23 6 -23 6 -26 6 C-26 5.01 -26 4.02 -26 3 C-25.41992188 2.95101562 -24.83984375 2.90203125 -24.2421875 2.8515625 C-19.52812735 2.40038183 -15.48944722 1.56154686 -11 0 C-6.91902542 -0.77397794 -3.97152601 -1.15330341 0 0 Z " fill="#7244B4" transform="translate(203,165)"/>
<path d="M0 0 C0.99 0.33 1.98 0.66 3 1 C3.13277344 1.78246094 3.26554687 2.56492188 3.40234375 3.37109375 C3.57894531 4.38300781 3.75554687 5.39492187 3.9375 6.4375 C4.11152344 7.44683594 4.28554687 8.45617187 4.46484375 9.49609375 C4.74751097 11.9287438 4.74751097 11.9287438 6 13 C6.04092937 15.33297433 6.04241723 17.66705225 6 20 C5.34 19.67 4.68 19.34 4 19 C3.19302005 16.55844387 2.50322609 14.17480995 1.875 11.6875 C1.69324219 11.01009766 1.51148437 10.33269531 1.32421875 9.63476562 C0.45138936 6.27798193 0 3.49419858 0 0 Z " fill="#834DC0" transform="translate(99,181)"/>
<path d="M0 0 C0.33 0 0.66 0 1 0 C1 4.95 1 9.9 1 15 C0.34 15 -0.32 15 -1 15 C-1.33 15.66 -1.66 16.32 -2 17 C-2.99 17 -3.98 17 -5 17 C-5.25 10.375 -5.25 10.375 -3 7 C-3 7.99 -3 8.98 -3 10 C-2.01 10 -1.02 10 0 10 C0 6.7 0 3.4 0 0 Z " fill="#B567F4" transform="translate(237,67)"/>
<path d="M0 0 C0.33 0 0.66 0 1 0 C1 4.29 1 8.58 1 13 C-0.03640625 13.06058594 -1.0728125 13.12117188 -2.140625 13.18359375 C-3.51042873 13.26803371 -4.88021975 13.35267997 -6.25 13.4375 C-7.27287109 13.49647461 -7.27287109 13.49647461 -8.31640625 13.55664062 C-11.64448041 13.76666472 -14.80255402 14.01934002 -18 15 C-18 15.99 -18 16.98 -18 18 C-18.99 18 -19.98 18 -21 18 C-20.09569886 15.73924715 -19.41872271 14.29556897 -17.40625 12.875 C-14.03352504 11.64855456 -10.78569363 11.7881115 -7.25 11.875 C-6.55261719 11.88402344 -5.85523438 11.89304687 -5.13671875 11.90234375 C-3.42433042 11.92580112 -1.71211996 11.96166896 0 12 C0 8.04 0 4.08 0 0 Z " fill="#4C2381" transform="translate(214,30)"/>
<path d="M0 0 C0 0.99 0 1.98 0 3 C-1.7015625 3.433125 -1.7015625 3.433125 -3.4375 3.875 C-4.613125 4.24625 -5.78875 4.6175 -7 5 C-7.33 5.66 -7.66 6.32 -8 7 C-9.32 6.67 -10.64 6.34 -12 6 C-12 5.34 -12 4.68 -12 4 C-11.34 4 -10.68 4 -10 4 C-10 3.34 -10 2.68 -10 2 C-6.7 1.34 -3.4 0.68 0 0 Z " fill="#C276FA" transform="translate(26,118)"/>
<path d="M0 0 C2.31 0 4.62 0 7 0 C7.66 1.32 8.32 2.64 9 4 C8.01 4.495 8.01 4.495 7 5 C7 4.34 7 3.68 7 3 C5.63875 3.7115625 5.63875 3.7115625 4.25 4.4375 C1.73572051 5.64628821 -0.29568209 6.47993886 -3 7 C-3 6.01 -3 5.02 -3 4 C-2.34 3.67 -1.68 3.34 -1 3 C-0.67 2.01 -0.34 1.02 0 0 Z " fill="#C370F9" transform="translate(129,8)"/>
<path d="M0 0 C0.66 0.33 1.32 0.66 2 1 C1.835 1.66 1.67 2.32 1.5 3 C0.87816701 6.73099794 0.93591074 10.21873378 1 14 C-0.32 13.67 -1.64 13.34 -3 13 C-4.10096216 9.73381227 -3.9223497 7.98446051 -2.625 4.8125 C-2.34914063 4.11769531 -2.07328125 3.42289063 -1.7890625 2.70703125 C-1 1 -1 1 0 0 Z " fill="#D16DFD" transform="translate(23,197)"/>
<path d="M0 0 C7.47835477 1.22951674 14.7216477 2.88829237 22 5 C22 5.33 22 5.66 22 6 C14.49020754 5.66801222 7.83533376 5.28621815 1 2 C0.67 1.34 0.34 0.68 0 0 Z " fill="#774EB0" transform="translate(224,112)"/>
<path d="M0 0 C-4.625 5.875 -4.625 5.875 -8 7 C-7.67 5.68 -7.34 4.36 -7 3 C-7.33 3.33 -7.66 3.66 -8 4 C-10.33944736 3.71269945 -12.6739143 3.38063221 -15 3 C-10.42919136 0.44034716 -5.14097791 -2.05639116 0 0 Z " fill="#9357C8" transform="translate(55,110)"/>
<path d="M0 0 C0.33 0 0.66 0 1 0 C1 2.64 1 5.28 1 8 C1.99 8.33 2.98 8.66 4 9 C4.3721042 10.32303717 4.70630173 11.65737935 5 13 C5.66 13.33 6.32 13.66 7 14 C7 14.99 7 15.98 7 17 C3.34683329 15.75023244 2.21934164 15.32901247 0 12 C-0.44921875 9.84375 -0.44921875 9.84375 -0.6875 7.5 C-0.77386719 6.7265625 -0.86023438 5.953125 -0.94921875 5.15625 C-1 3 -1 3 0 0 Z " fill="#7D49AF" transform="translate(192,48)"/>
<path d="M0 0 C4.70969601 4.05557156 6.78325872 8.2446075 9 14 C9.433125 15.093125 9.86625 16.18625 10.3125 17.3125 C11.03573787 20.1397026 10.80544481 21.2823481 10 24 C9.78085938 23.24976563 9.56171875 22.49953125 9.3359375 21.7265625 C7.31730454 15.21113743 4.90685717 9.67435082 1.171875 3.9609375 C0 2 0 2 0 0 Z " fill="#663B97" transform="translate(112,157)"/>
<path d="M0 0 C2 0 2 0 3.625 1 C5.82559052 4.20085893 5.18792122 7.17893517 5 11 C3.68 10.34 2.36 9.68 1 9 C1 8.01 1 7.02 1 6 C0.34 5.67 -0.32 5.34 -1 5 C-0.67 3.35 -0.34 1.7 0 0 Z " fill="#CB6FFE" transform="translate(194,51)"/>
<path d="M0 0 C0.7734375 0.495 0.7734375 0.495 1.5625 1 C4.78026512 2.32010877 7.5570528 2.13242105 11 2 C11 1.67 11 1.34 11 1 C13.31 1 15.62 1 18 1 C16.5 3 16.5 3 14 5 C8.63814389 5.59576179 5.37098804 5.44380876 1 2 C0.67 1.34 0.34 0.68 0 0 Z " fill="#7D4AB7" transform="translate(31,224)"/>
<path d="M0 0 C3.61194146 0.42493429 6.04826928 1.58115387 9.1875 3.375 C9.1875 4.035 9.1875 4.695 9.1875 5.375 C8.1975 5.375 7.2075 5.375 6.1875 5.375 C6.1875 4.715 6.1875 4.055 6.1875 3.375 C1.96871808 3.17877759 -0.98260894 3.57269832 -4.8125 5.375 C-5.1425 4.715 -5.4725 4.055 -5.8125 3.375 C-3.97813861 0.92918482 -3.0846944 0.41129259 0 0 Z " fill="#7F45B4" transform="translate(225.8125,17.625)"/>
<path d="M0 0 C5.61 0 11.22 0 17 0 C17 1.32 17 2.64 17 4 C11.2190275 3.36934845 5.6556294 2.34844868 0 1 C0 0.67 0 0.34 0 0 Z " fill="#814FBC" transform="translate(47,160)"/>
<path d="M0 0 C0.33 0.66 0.66 1.32 1 2 C2.65 2 4.3 2 6 2 C2.65344469 3.86917357 -0.65438563 4.79854202 -4.375 5.6875 C-6.02628906 6.09548828 -6.02628906 6.09548828 -7.7109375 6.51171875 C-11.11750418 7.01744421 -13.65902965 6.75197067 -17 6 C-17 5.67 -17 5.34 -17 5 C-15.53626953 4.80083984 -15.53626953 4.80083984 -14.04296875 4.59765625 C-12.13451172 4.33275391 -12.13451172 4.33275391 -10.1875 4.0625 C-8.29064453 3.80146484 -8.29064453 3.80146484 -6.35546875 3.53515625 C-3.01678297 3.09607545 -3.01678297 3.09607545 0 2 C0 1.34 0 0.68 0 0 Z " fill="#7E51B6" transform="translate(233,153)"/>
<path d="M0 0 C1.64548828 0.52400391 1.64548828 0.52400391 3.32421875 1.05859375 C4.77860238 1.51836664 6.23303189 1.97799441 7.6875 2.4375 C8.40873047 2.66759766 9.12996094 2.89769531 9.87304688 3.13476562 C13.56180375 4.2969767 17.17959607 5.34442773 21 6 C21 6.33 21 6.66 21 7 C14.90218999 7.22084624 9.78357065 7.01167675 4 5 C4 4.34 4 3.68 4 3 C2.68 2.67 1.36 2.34 0 2 C0 1.34 0 0.68 0 0 Z " fill="#6A43A3" transform="translate(172,97)"/>
<path d="M0 0 C2.64 0.33 5.28 0.66 8 1 C7.01 1.495 7.01 1.495 6 2 C6 2.66 6 3.32 6 4 C1.23692563 4.95261487 -3.1666528 5.08333357 -8 5 C-5.08235 3.0549 -3.37462715 2.54723683 0 2 C0 1.34 0 0.68 0 0 Z " fill="#8553BA" transform="translate(216,134)"/>
<path d="M0 0 C0.99 0.33 1.98 0.66 3 1 C3 2.32 3 3.64 3 5 C3.66 5 4.32 5 5 5 C5 6.65 5 8.3 5 10 C2 10 2 10 0 9 C-0.44921875 7.1875 -0.44921875 7.1875 -0.6875 5 C-0.77386719 4.278125 -0.86023438 3.55625 -0.94921875 2.8125 C-0.96597656 2.214375 -0.98273438 1.61625 -1 1 C-0.67 0.67 -0.34 0.34 0 0 Z " fill="#C97BFE" transform="translate(144,15)"/>
<path d="M0 0 C0.66 0 1.32 0 2 0 C2.33 1.32 2.66 2.64 3 4 C-1.30769231 7.07692308 -1.30769231 7.07692308 -4.8125 6.6875 C-5.534375 6.460625 -6.25625 6.23375 -7 6 C-7 4.68 -7 3.36 -7 2 C-5.68 2 -4.36 2 -3 2 C-3 2.99 -3 3.98 -3 5 C-2.01 5 -1.02 5 0 5 C-0.2784375 4.0409375 -0.2784375 4.0409375 -0.5625 3.0625 C-0.706875 2.381875 -0.85125 1.70125 -1 1 C-0.67 0.67 -0.34 0.34 0 0 Z " fill="#A45BE2" transform="translate(112,108)"/>
<path d="M0 0 C-0.1875 1.8125 -0.1875 1.8125 -1 4 C-5.17857143 7 -5.17857143 7 -8 7 C-7.67 5.35 -7.34 3.7 -7 2 C-7.66 1.67 -8.32 1.34 -9 1 C-2.25 0 -2.25 0 0 0 Z " fill="#CA77FE" transform="translate(91,102)"/>
<path d="M0 0 C0.66 0.33 1.32 0.66 2 1 C1.2884375 1.928125 1.2884375 1.928125 0.5625 2.875 C-1.58052838 7.16105676 -1.73342564 11.26600709 -2 16 C-4 15 -4 15 -4.875 12.4375 C-5.0427382 7.82469955 -3.38114193 4.86704833 -1 1 C-0.67 0.67 -0.34 0.34 0 0 Z " fill="#733BA3" transform="translate(21,195)"/>
<path d="M0 0 C0.33 1.32 0.66 2.64 1 4 C0.34 4 -0.32 4 -1 4 C-0.9175 5.0725 -0.835 6.145 -0.75 7.25 C-1 11 -1 11 -3 13.4375 C-3.99 14.2109375 -3.99 14.2109375 -5 15 C-4.5188509 9.22621075 -2.81532819 5.04140164 0 0 Z " fill="#7241AC" transform="translate(150,163)"/>
<path d="M0 0 C-0.33 1.32 -0.66 2.64 -1 4 C-2.32 4.33 -3.64 4.66 -5 5 C-5.061875 5.61875 -5.12375 6.2375 -5.1875 6.875 C-6 9 -6 9 -8.5625 10.25 C-9.366875 10.4975 -10.17125 10.745 -11 11 C-9.7672897 6.34309441 -5.30909278 0 0 0 Z " fill="#7144A7" transform="translate(162,152)"/>
<path d="M0 0 C0.33 0 0.66 0 1 0 C1.66 3.3 2.32 6.6 3 10 C3.99 9.01 4.98 8.02 6 7 C5.67 8.98 5.34 10.96 5 13 C3.68 13 2.36 13 1 13 C-0.00496852 9.98509443 -0.10335303 7.95818308 -0.0625 4.8125 C-0.05347656 3.91144531 -0.04445312 3.01039063 -0.03515625 2.08203125 C-0.02355469 1.39496094 -0.01195312 0.70789063 0 0 Z " fill="#6F42A6" transform="translate(130,207)"/>
<path d="M0 0 C4.13347071 0.47239665 7.35761877 2.05174957 11 4 C8.26094655 5.36952673 6.02912668 5.12621361 3 5 C2.34 4.67 1.68 4.34 1 4 C1 3.34 1 2.68 1 2 C0.34 1.67 -0.32 1.34 -1 1 C-0.67 0.67 -0.34 0.34 0 0 Z " fill="#8857C3" transform="translate(97,149)"/>
<path d="M0 0 C1.66645757 3.08549348 2.73761596 6.12675325 3.6875 9.5 C3.95949219 10.4384375 4.23148438 11.376875 4.51171875 12.34375 C5.00140894 15.00766466 4.88693174 16.47611372 4 19 C0.90133798 12.37384327 -0.47266289 7.32627475 0 0 Z " fill="#623B9C" transform="translate(157,45)"/>
<path d="M0 0 C0.33 0 0.66 0 1 0 C1 2.97 1 5.94 1 9 C-1.31 9.33 -3.62 9.66 -6 10 C-5.01 7.69 -4.02 5.38 -3 3 C-2.34 3.33 -1.68 3.66 -1 4 C-0.67 2.68 -0.34 1.36 0 0 Z " fill="#B567F3" transform="translate(260,50)"/>
<path d="M0 0 C-0.61538462 5.53846154 -0.61538462 5.53846154 -2.5625 7.875 C-3.2740625 8.431875 -3.2740625 8.431875 -4 9 C-4.66 6.36 -5.32 3.72 -6 1 C-3 0 -3 0 0 0 Z " fill="#9259CC" transform="translate(151,249)"/>
<path d="M0 0 C0.99 0.495 0.99 0.495 2 1 C2 2.32 2 3.64 2 5 C2.66 5 3.32 5 4 5 C4 8.63 4 12.26 4 16 C2.549808 13.09961601 1.62284089 11.03884551 0.875 8 C0.70742187 7.34 0.53984375 6.68 0.3671875 6 C0 4 0 4 0 0 Z " fill="#7847AF" transform="translate(112,232)"/>
<path d="M0 0 C0.33 0 0.66 0 1 0 C1.20674944 5.78898419 0.59162079 10.42932723 -1 16 C-1.66 16 -2.32 16 -3 16 C-2.40984815 10.49191603 -1.43336231 5.35121931 0 0 Z " fill="#7641B3" transform="translate(106,57)"/>
<path d="M0 0 C1.22541995 3.67625984 0.63382842 5.40247587 -0.3125 9.125 C-0.57675781 10.20007813 -0.84101563 11.27515625 -1.11328125 12.3828125 C-2 15 -2 15 -4 16 C-4.45041681 9.99444257 -2.64162807 5.28325613 0 0 Z " fill="#6536A1" transform="translate(167,183)"/>
<path d="M0 0 C1.74325447 2.6148817 2.41587957 4.0053433 3.125 6.9375 C3.29257813 7.60652344 3.46015625 8.27554688 3.6328125 8.96484375 C4 11 4 11 4 15 C3.34 15 2.68 15 2 15 C2 13.02 2 11.04 2 9 C1.01 8.67 0.02 8.34 -1 8 C-0.67 5.36 -0.34 2.72 0 0 Z " fill="#6F429E" transform="translate(153,30)"/>
<path d="M0 0 C5.28 1.32 10.56 2.64 16 4 C16 4.33 16 4.66 16 5 C9.49686791 5.46450943 5.5825192 4.32575612 0 1 C0 0.67 0 0.34 0 0 Z " fill="#764FAE" transform="translate(194,104)"/>
<path d="M0 0 C0.66 1.32 1.32 2.64 2 4 C1.34 4 0.68 4 0 4 C-0.66 5.32 -1.32 6.64 -2 8 C-2.99 8 -3.98 8 -5 8 C-4.45773019 4.20411134 -2.79872437 2.52788007 0 0 Z " fill="#D177FE" transform="translate(158,158)"/>
<path d="M0 0 C-1.74635165 0.53293835 -3.49727652 1.05090663 -5.25 1.5625 C-6.22453125 1.85253906 -7.1990625 2.14257812 -8.203125 2.44140625 C-10.96243932 2.99249836 -12.3912824 2.93789609 -15 2 C-14.67 1.34 -14.34 0.68 -14 0 C-11.85546875 -0.44921875 -11.85546875 -0.44921875 -9.1875 -0.6875 C-8.31480469 -0.77386719 -7.44210938 -0.86023438 -6.54296875 -0.94921875 C-4.12955035 -0.99741297 -2.29263502 -0.7107703 0 0 Z " fill="#794AB4" transform="translate(75,129)"/>
<path d="M0 0 C5.17803162 -0.17855281 9.15067444 -0.07828238 14 2 C14.66 2.66 15.32 3.32 16 4 C10.49191603 3.40984815 5.35121931 2.43336231 0 1 C0 0.67 0 0.34 0 0 Z " fill="#613BA1" transform="translate(179,125)"/>
<path d="M0 0 C2.29903669 4.10542266 4.35523153 8.69099505 3.625 13.4375 C3.41875 13.953125 3.2125 14.46875 3 15 C2.34 14.67 1.68 14.34 1 14 C1 12.02 1 10.04 1 8 C0.34 8 -0.32 8 -1 8 C-0.67 5.36 -0.34 2.72 0 0 Z " fill="#7341A1" transform="translate(163,68)"/>
<path d="M0 0 C6.93 0.495 6.93 0.495 14 1 C14.33 1.99 14.66 2.98 15 4 C9.76119922 3.44854729 5.02649303 2.57077907 0 1 C0 0.67 0 0.34 0 0 Z " fill="#754CB0" transform="translate(21,153)"/>
<path d="M0 0 C-0.33 2.31 -0.66 4.62 -1 7 C-1.66 7 -2.32 7 -3 7 C-3 6.34 -3 5.68 -3 5 C-3.66 5 -4.32 5 -5 5 C-5 4.01 -5 3.02 -5 2 C-2 0 -2 0 0 0 Z " fill="#C77AFE" transform="translate(18,143)"/>
<path d="M0 0 C2.3125 0.125 2.3125 0.125 5 1 C6.75 3.9375 6.75 3.9375 8 7 C8.33 7.66 8.66 8.32 9 9 C4.71930097 7.41455592 2.70478088 4.5312417 0 1 C0 0.67 0 0.34 0 0 Z " fill="#663B9B" transform="translate(151,109)"/>
<path d="M0 0 C0.66 0 1.32 0 2 0 C1.62403791 2.78211944 1.32681541 4.5879284 -0.4375 6.8125 C-2 8 -2 8 -4 8 C-2.25 2.25 -2.25 2.25 0 0 Z " fill="#8245B7" transform="translate(33,183)"/>
<path d="M0 0 C-1.24176695 0.70226141 -2.49385599 1.38629109 -3.75 2.0625 C-4.79414063 2.63677734 -4.79414063 2.63677734 -5.859375 3.22265625 C-8.36140628 4.1312406 -9.5332355 3.88336837 -12 3 C-10.75823305 2.29773859 -9.50614401 1.61370891 -8.25 0.9375 C-7.20585937 0.36322266 -7.20585937 0.36322266 -6.140625 -0.22265625 C-3.63859372 -1.1312406 -2.4667645 -0.88336837 0 0 Z " fill="#7146AB" transform="translate(175,148)"/>
<path d="M0 0 C0.33 0.66 0.66 1.32 1 2 C0.00390625 4.3828125 0.00390625 4.3828125 -1.4375 7.125 C-1.91058594 8.03507812 -2.38367188 8.94515625 -2.87109375 9.8828125 C-3.24363281 10.58148438 -3.61617188 11.28015625 -4 12 C-4.33 10.68 -4.66 9.36 -5 8 C-4.34 8 -3.68 8 -3 8 C-2.87625 7.236875 -2.7525 6.47375 -2.625 5.6875 C-2 3 -2 3 0 0 Z " fill="#6136A7" transform="translate(120,98)"/>
<path d="M0 0 C0 0.66 0 1.32 0 2 C-2.52475462 3.26237731 -4.31200466 3.09856404 -7.125 3.0625 C-8.03507812 3.05347656 -8.94515625 3.04445313 -9.8828125 3.03515625 C-10.58148438 3.02355469 -11.28015625 3.01195313 -12 3 C-7.74560485 0.81962249 -4.84315381 0 0 0 Z " fill="#7E4DB5" transform="translate(91,100)"/>
<path d="M0 0 C0.33 0 0.66 0 1 0 C1 1.98 1 3.96 1 6 C1.99 6 2.98 6 4 6 C5.6875 7.5 5.6875 7.5 7 9 C6.67 9.66 6.34 10.32 6 11 C4.125 10.6875 4.125 10.6875 2 10 C-0.4294516 6.3558226 -0.16179575 4.28758728 0 0 Z " fill="#955FC8" transform="translate(216,77)"/>
<path d="M0 0 C2.375 1.0625 2.375 1.0625 5 3 C6.3125 6.6875 6.3125 6.6875 7 10 C6.34 10 5.68 10 5 10 C4.34 8.02 3.68 6.04 3 4 C2.34 4 1.68 4 1 4 C0.67 2.68 0.34 1.36 0 0 Z " fill="#76449E" transform="translate(46,183)"/>
<path d="M0 0 C3.91211733 1.15585285 6.8745041 2.35534962 10 5 C9.67 5.66 9.34 6.32 9 7 C6.525 6.01 6.525 6.01 4 5 C4 4.34 4 3.68 4 3 C2.68 2.34 1.36 1.68 0 1 C0 0.67 0 0.34 0 0 Z " fill="#7B47A2" transform="translate(53,193)"/>
<path d="M0 0 C0.66 0.33 1.32 0.66 2 1 C0.90554162 1.86657116 -0.20097781 2.71792724 -1.3125 3.5625 C-1.92738281 4.03816406 -2.54226562 4.51382813 -3.17578125 5.00390625 C-3.77777344 5.33261719 -4.37976563 5.66132812 -5 6 C-5.99 5.67 -6.98 5.34 -8 5 C-7.67 4.34 -7.34 3.68 -7 3 C-5.68 3 -4.36 3 -3 3 C-3 2.34 -3 1.68 -3 1 C-2.01 0.67 -1.02 0.34 0 0 Z " fill="#6D3FAF" transform="translate(110,114)"/>
<path d="M0 0 C0.33 0 0.66 0 1 0 C1.125 7.625 1.125 7.625 0 11 C-0.66 11 -1.32 11 -2 11 C-1.125 3.375 -1.125 3.375 0 0 Z " fill="#713EB0" transform="translate(109,46)"/>
<path d="M0 0 C0.99 0.33 1.98 0.66 3 1 C2.67 2.32 2.34 3.64 2 5 C0.35 5.33 -1.3 5.66 -3 6 C-3 3 -3 3 -1.5 1.3125 C-0.7575 0.6628125 -0.7575 0.6628125 0 0 Z " fill="#CD77FC" transform="translate(129,9)"/>
<path d="M0 0 C3.67857143 3.67857143 3.67857143 3.67857143 4 7 C3.34 7.66 2.68 8.32 2 9 C1.34 9 0.68 9 0 9 C0 6.03 0 3.06 0 0 Z " fill="#C779F9" transform="translate(48,187)"/>
<path d="M0 0 C1.65 0 3.3 0 5 0 C4.34 1.32 3.68 2.64 3 4 C1.68 4 0.36 4 -1 4 C-0.67 2.68 -0.34 1.36 0 0 Z " fill="#D16EFC" transform="translate(34,186)"/>
<path d="M0 0 C7.50769231 -0.36923077 7.50769231 -0.36923077 10 1.5 C10.495 2.2425 10.495 2.2425 11 3 C9 4 9 4 6.8359375 3.44140625 C6.02382812 3.15136719 5.21171875 2.86132812 4.375 2.5625 C3.55773437 2.27503906 2.74046875 1.98757812 1.8984375 1.69140625 C1.27195312 1.46324219 0.64546875 1.23507813 0 1 C0 0.67 0 0.34 0 0 Z " fill="#7545A8" transform="translate(83,169)"/>
<path d="M0 0 C0.99 0.33 1.98 0.66 3 1 C3 3.97 3 6.94 3 10 C0.70366176 6.55549263 0.45983515 4.06187717 0 0 Z " fill="#784BB2" transform="translate(143,85)"/>
<path d="M0 0 C7.50769231 -0.36923077 7.50769231 -0.36923077 10 1.5 C10.495 2.2425 10.495 2.2425 11 3 C9.741875 2.87625 8.48375 2.7525 7.1875 2.625 C6.12595703 2.52058594 6.12595703 2.52058594 5.04296875 2.4140625 C3 2 3 2 0 0 Z " fill="#6D42A2" transform="translate(200,130)"/>
<path d="M0 0 C7.50769231 -0.36923077 7.50769231 -0.36923077 10 1.5 C10.495 2.2425 10.495 2.2425 11 3 C9.741875 2.87625 8.48375 2.7525 7.1875 2.625 C6.12595703 2.52058594 6.12595703 2.52058594 5.04296875 2.4140625 C3 2 3 2 0 0 Z " fill="#5E3E9E" transform="translate(168,122)"/>
<path d="M0 0 C0.33 0 0.66 0 1 0 C1.36923077 7.50769231 1.36923077 7.50769231 -0.5 10 C-0.995 10.33 -1.49 10.66 -2 11 C-1.125 3.375 -1.125 3.375 0 0 Z " fill="#603298" transform="translate(112,34)"/>
<path d="M0 0 C1.32 0 2.64 0 4 0 C5.35439668 2.70879335 5.06501451 5.00933268 5 8 C3.24901874 5.37352812 1.61268692 2.71224618 0 0 Z " fill="#7F4EB9" transform="translate(94,173)"/>
<path d="M0 0 C0.99 0 1.98 0 3 0 C3 0.66 3 1.32 3 2 C2.34 2 1.68 2 1 2 C1.061875 2.78375 1.12375 3.5675 1.1875 4.375 C1.125625 5.24125 1.06375 6.1075 1 7 C0.01 7.66 -0.98 8.32 -2 9 C-2 7.68 -2 6.36 -2 5 C-1.34 5 -0.68 5 0 5 C0 3.35 0 1.7 0 0 Z " fill="#945CD0" transform="translate(258,140)"/>
<path d="M0 0 C-0.99 0.495 -0.99 0.495 -2 1 C-2.33 1.66 -2.66 2.32 -3 3 C-4.32 2.67 -5.64 2.34 -7 2 C-7 1.34 -7 0.68 -7 0 C-4.3333581 -1.33332095 -2.83319697 -0.67102033 0 0 Z " fill="#CE74FD" transform="translate(21,122)"/>
</svg>
